<?xml version="1.0" encoding="UTF-8" standalone="no"?>
<!-- Created with Inkscape (http://www.inkscape.org/) -->

<svg
   xmlns:dc="http://purl.org/dc/elements/1.1/"
   xmlns:cc="http://creativecommons.org/ns#"
   xmlns:rdf="http://www.w3.org/1999/02/22-rdf-syntax-ns#"
   xmlns:svg="http://www.w3.org/2000/svg"
   xmlns="http://www.w3.org/2000/svg"
   xmlns:sodipodi="http://sodipodi.sourceforge.net/DTD/sodipodi-0.dtd"
   xmlns:inkscape="http://www.inkscape.org/namespaces/inkscape"
   width="210mm"
   height="297mm"
   viewBox="0 0 744.09448819 1052.3622047"
   id="svg2"
   version="1.1"
   inkscape:version="0.91 r13725"
   sodipodi:docname="stamp.svg">
  <defs
     id="defs4" />
  <sodipodi:namedview
     id="base"
     pagecolor="#ffffff"
     bordercolor="#666666"
     borderopacity="1.0"
     inkscape:pageopacity="0.0"
     inkscape:pageshadow="2"
     inkscape:zoom="2"
     inkscape:cx="320.71429"
     inkscape:cy="780"
     inkscape:document-units="px"
     inkscape:current-layer="layer1"
     showgrid="false"
     inkscape:window-width="1855"
     inkscape:window-height="1056"
     inkscape:window-x="65"
     inkscape:window-y="24"
     inkscape:window-maximized="1" />
  <metadata
     id="metadata7">
    <rdf:RDF>
      <cc:Work
         rdf:about="">
        <dc:format>image/svg+xml</dc:format>
        <dc:type
           rdf:resource="http://purl.org/dc/dcmitype/StillImage" />
        <dc:title></dc:title>
      </cc:Work>
    </rdf:RDF>
  </metadata>
  <g
     inkscape:label="Ebene 1"
     inkscape:groupmode="layer"
     id="layer1">
    <g
       transform="matrix(1.25,0,0,-1.25,72.400834,450.80374)"
       inkscape:label="wave"
       id="g8130">
      <g
         transform="translate(10.162,10.162)"
         id="g8132">
        <g
           id="g8134">
          <g
             id="g8136">
            <path
               inkscape:connector-curvature="0"
               id="path8138"
               style="fill:none;stroke:#000000;stroke-width:0.3985;stroke-linecap:butt;stroke-linejoin:miter;stroke-miterlimit:10;stroke-dasharray:none;stroke-opacity:1"
               d="M 0,0 2.27902,0 4.55807,0 6.83711,0 9.11617,3.69733 11.3952,6.94135 13.67426,8.45091 15.95328,7.84969 18.23233,5.28734 20.51137,1.40445 22.79042,0 l 2.27904,0 2.27905,0 2.27902,0 2.27906,0 2.27903,0 2.27906,1.92651 2.27903,3.7674 2.27906,2.34523 2.27902,0.33694 L 45.58084,6.6204 47.85988,3.21071 50.13893,0 l 2.27904,0 2.27905,0 2.27902,0 2.27906,0 2.27903,0 2.27906,0.06183 2.27903,4.10737 2.27906,3.06586 L 70.6503,8.4933 72.92935,7.62996 75.20839,4.86084 77.48744,0.87674 79.76648,0 l 2.27905,0 2.27902,0 2.27905,0 2.27904,0 2.27906,0 2.27903,2.4408 2.27906,3.6372 2.27902,2.11858 2.27905,0.07094 2.27904,-1.99443 2.27905,-3.5611 L 107.11499,0 l 2.27905,0 2.27903,0 2.27905,0 2.27904,0 2.27905,0 2.27904,0.59343 2.27905,4.03125 2.27902,2.87552 2.27905,1.00218 2.27904,-1.12199 2.27905,-2.96593 L 134.4635,0.34602 136.74255,0 l 2.27903,0 2.27905,0 2.27904,0 2.27905,0 2.27904,0 2.27905,2.94557 2.27902,3.49275 2.27905,1.88368 2.27904,-0.19462 2.27905,-2.22542 2.27904,-3.69949 L 164.09106,0 l 2.27903,0 2.27905,0 2.27904,0 2.27905,0 2.27904,0 2.27905,1.12285 2.27904,3.93913 2.27904,2.67395 2.27903,0.74179 2.27905,-1.37632 2.27904,-3.15018 L 191.43958,0 l 2.27903,0 2.27904,0 2.27904,0 2.27905,0 2.27906,0 2.27903,0 2.27905,3.43909 2.27902,3.33401 2.27906,1.64192 2.27904,-0.46023 2.27905,-2.4473 2.27904,-3.82321 L 221.06714,0 l 2.27902,0 2.27905,0 2.27904,0 2.27905,0 2.27904,0 2.27906,1.64839 2.27902,3.831 2.27905,2.46241 2.27903,0.4784 2.27906,-1.62505 L 246.1366,3.4724 248.41565,0 l 2.27902,0 2.27905,0 2.27904,0 2.27905,0 2.27904,0 2.27905,0 2.27903,3.91878 2.27905,3.16227 2.27904,1.39365 2.27905,-0.72363 2.27903,-2.65967 2.27906,-3.9322 2.27902,-1.1592 2.27906,0 2.27903,0 2.27906,0 2.27903,0 2.27906,0 2.27902,2.167 2.27905,3.70858 2.27904,2.24055 2.27905,0.21325 2.27904,-1.86771 2.27905,-3.48149 L 305.3917,0 l 2.27905,0 2.27903,0 2.27906,0 2.27903,0 2.27906,0 2.27902,0.30925 2.27905,4.07408 2.27904,2.97888 2.27905,1.1393 2.27904,-0.98402 2.27905,-2.86211 L 332.7402,0.63019 335.01926,0 l 2.27904,0 2.27905,0 2.27903,0 2.27906,0 2.27902,0 2.27905,2.67697 2.27904,3.57146 2.27905,2.01088 2.27904,-0.05278 2.27906,-2.103 2.27903,-3.6277 L 362.36777,0 l 2.27903,0 2.27906,0 2.27904,0 2.27905,0 2.27904,0 2.27903,0.84041 2.27904,3.99016 2.27905,2.78296 2.27904,0.8815 2.27905,-1.24096 2.27904,-3.05284 2.27904,-4.10307 L 391.99532,0 l 2.27905,0 2.27903,0 2.27906,0 2.27904,0 2.27903,0 2.27906,3.17697 2.27903,3.42009 2.27906,1.77254 2.27903,-0.31879 2.27906,-2.32965 2.27902,-3.75918 L 419.34384,0 l 2.27904,0 2.27905,0 2.27904,0 2.27905,0 2.27902,0 2.27906,1.3681 2.27903,3.89069 2.27906,2.57704 2.27903,0.61942 2.27906,-1.49271 L 444.4133,3.7302 446.69235,0 l 2.27904,0 2.27905,0 2.27904,0 M 0,0 0,1.42303 0,2.84868 0,4.27173 0,5.6978 0.06616,7.12086 2.70293,8.5465 5.07278,9.96956 6.94093,11.39563 8.12305,12.81825 8.50238,14.24432 8.04086,15.66737 6.78435,17.09344 4.85695,18.51608 2.44987,19.93912 0,21.36476 l 0,1.42609 0,1.42305 0,1.42305 0,1.42564 0,1.42607 0,1.42307 0,1.42261 0,1.42606 0,1.4261 0.33174,1.4226 2.62204,1.42307 2.33008,1.42607 1.80716,1.42607 1.10643,1.42003 0.29628,1.42564 -0.5437,1.42564 L 6.6204,45.57867 4.63635,47.00172 2.19382,48.42781 0,49.85345 l 0,1.42304 0,1.42306 0,1.42565 0,1.42305 0,1.42607 0,1.42305 0,1.42564 0,1.42609 0,1.42303 0.59775,1.42263 2.60431,1.42608 2.2877,1.42565 1.74486,1.42305 1.02986,1.42303 0.21237,1.42609 L 7.85184,72.64172 6.45042,74.06737 4.41101,75.4904 1.93602,76.91606 0,78.3391 l 0,1.42608 0,1.42305 0,1.42565 0,1.42305 0,1.42564 0,1.42305 0,1.42608 0,1.42304 0,1.42565 0.86246,1.42306 2.58441,1.42607 2.24315,1.42262 1.68084,1.42608 0.95202,1.42305 0.12933,1.42564 -0.70635,1.42306 -1.4719,1.42606 -2.0922,1.42307 -2.50569,1.42564 L 0,106.82779 l 0,1.42564 0,1.42304 0,1.42608 0,1.42307 0,1.42563 0,1.42305 0,1.42608 0,1.42261 0,1.42609 1.12675,1.42305 2.56148,1.42564 2.19643,1.42305 1.61511,1.42609 0.87372,1.42303 0.04585,1.42566 -0.78679,1.42304 -1.54113,1.42564 -2.14322,1.42307 -2.53382,1.42303 L 0,135.31647 l 0,1.42564 0,1.42305 0,1.42305 0,1.42566 0,1.42606 0,1.42306 0,1.42304 0,1.42566 0,1.42607 1.38972,1.4226 2.53641,1.42307 2.14755,1.42609 1.54762,1.42562 0.79414,1.42048 -0.03762,1.42562 -0.86638,1.42609 -1.60861,1.42305 -2.19209,1.42261 -2.55933,1.42608 L 0,163.80472 l 0,1.42305 0,1.42305 0,1.42607 0,1.42305 0,1.42566 0,1.42303 0,1.42565 0,1.42608 0,1.42305 1.65141,1.42305 2.5083,1.42564 2.09737,1.42608 1.47841,1.42262 0.71368,1.42305 -0.12109,1.42607 -0.94511,1.42307 -1.67435,1.42564 -2.23924,1.42305 -2.58182,1.42607 L 0,192.29037 l 0,1.42608 0,1.42306 0,1.42563 0,1.42306 0,1.42608 0,1.42305 0,1.42564 0,1.42305 0,1.42564 1.91136,1.42305 2.47844,1.42607 2.04419,1.42305 1.40791,1.42567 0.63324,1.42303 -0.20503,1.42566 -1.02252,1.42305 -1.7388,1.42607 -2.2838,1.42305 L 0.6224,219.356 0,220.77905 l 0,1.42609 0,1.42303 0,1.42565 0,1.42306 0,1.42563 0,1.42307 0,1.42607 0,1.42305 0,1.42564 2.16959,1.42305 2.44601,1.42565 1.98924,1.42306 1.33655,1.42607 0.55106,1.42305 -0.28809,1.42565 -1.09952,1.42305 -1.8015,1.42607 -2.3262,1.42262 -2.62031,1.42305 L 0,249.26775 l 0,1.42564 0,1.42303 0,1.42307 0,1.42607 0,1.42564 0,1.42305 0,1.42305 0,1.42565 0,1.42609 2.42564,1.42303 2.41098,1.42306 1.93259,1.42565 1.26343,1.42562 0.46931,1.4235 -0.37155,1.4226 -1.17477,1.4261 -1.86251,1.42306 -2.3664,1.42605 -2.63547,1.42263 L 0,277.756 l 0,1.42303 0,1.42609 0,1.42303 0,1.42307 M 453.54895,0 l 0,1.42303 0,1.42565 0,1.42305 0,1.42607 -0.0662,1.42306 -2.63675,1.42564 -2.36987,1.42306 -1.86814,1.42607 -1.18213,1.42262 -0.37933,1.42607 0.46152,1.42305 1.25653,1.42607 1.9274,1.42264 2.40705,1.42304 2.44991,1.42564 0,1.42609 0,1.42305 0,1.42305 0,1.42564 0,1.42607 0,1.42307 0,1.42261 0,1.42606 0,1.4261 -0.33177,1.4226 -2.62204,1.42307 -2.33008,1.42607 -1.80714,1.42607 -1.10643,1.42003 -0.2963,1.42564 0.5437,1.42564 1.32962,1.42305 1.98406,1.42305 2.44253,1.42609 2.19385,1.42564 0,1.42304 0,1.42306 0,1.42565 0,1.42305 0,1.42607 0,1.42305 0,1.42564 0,1.42609 0,1.42303 -0.59778,1.42263 -2.60431,1.42608 -2.28769,1.42565 -1.74485,1.42305 -1.02988,1.42303 -0.21237,1.42609 0.62501,1.42306 1.40143,1.42565 2.0394,1.42303 2.47499,1.42566 1.93605,1.42304 0,1.42608 0,1.42305 0,1.42565 0,1.42305 0,1.42564 0,1.42305 0,1.42608 0,1.42304 0,1.42565 -0.86249,1.42306 -2.58441,1.42607 -2.24313,1.42262 -1.68087,1.42608 -0.95201,1.42305 -0.12933,1.42564 0.70634,1.42306 1.47193,1.42606 2.09218,1.42307 2.50569,1.42564 1.6761,1.42305 0,1.42564 0,1.42304 0,1.42608 0,1.42307 0,1.42563 0,1.42305 0,1.42608 0,1.42261 0,1.42609 -1.12677,1.42305 -2.56149,1.42564 -2.19643,1.42305 -1.6151,1.42609 -0.87371,1.42303 -0.0459,1.42566 0.78677,1.42304 1.54115,1.42564 2.14322,1.42307 2.5338,1.42303 1.41441,1.42609 0,1.42564 0,1.42305 0,1.42305 0,1.42566 0,1.42606 0,1.42306 0,1.42304 0,1.42566 0,1.42607 -1.38975,1.4226 -2.5364,1.42307 -2.14755,1.42609 -1.54762,1.42562 -0.79415,1.42048 0.0376,1.42562 0.86638,1.42609 1.60861,1.42305 2.1921,1.42261 2.55932,1.42608 1.15143,1.42565 0,1.42305 0,1.42305 0,1.42607 0,1.42305 0,1.42566 0,1.42303 0,1.42565 0,1.42608 0,1.42305 -1.65145,1.42305 -2.50828,1.42564 -2.09738,1.42608 -1.47839,1.42262 -0.7137,1.42305 0.12111,1.42607 0.94509,1.42307 1.67435,1.42564 2.23926,1.42305 2.5818,1.42607 0.88759,1.42262 0,1.42608 0,1.42306 0,1.42563 0,1.42306 0,1.42608 0,1.42305 0,1.42564 0,1.42305 0,1.42564 -1.91139,1.42305 -2.47844,1.42607 -2.04418,1.42305 -1.40791,1.42567 -0.63324,1.42303 0.20502,1.42566 1.02252,1.42305 1.7388,1.42607 2.28381,1.42305 2.60257,1.42564 0.62244,1.42305 0,1.42609 0,1.42303 0,1.42565 0,1.42306 0,1.42563 0,1.42307 0,1.42607 0,1.42305 0,1.42564 -2.16962,1.42305 -2.44601,1.42565 -1.98923,1.42306 -1.33655,1.42607 -0.55105,1.42305 0.28807,1.42565 1.09952,1.42305 1.80151,1.42607 2.32619,1.42262 2.62032,1.42305 0.35685,1.42609 0,1.42564 0,1.42303 0,1.42307 0,1.42607 0,1.42564 0,1.42305 0,1.42305 0,1.42565 0,1.42609 -2.42567,1.42303 -2.41097,1.42306 -1.93259,1.42565 -1.26344,1.42562 -0.46931,1.4235 0.37155,1.4226 1.17478,1.4261 1.8625,1.42306 2.36642,1.42605 2.63545,1.42263 0.0913,1.42566 0,1.42303 0,1.42609 0,1.42303 0,1.42307 M 0,283.4681 l 2.27902,0 2.27905,0 2.27904,0 2.27906,-3.69736 2.27903,-3.24402 2.27906,-1.50955 2.27902,0.60121 2.27905,2.56236 2.27904,3.88289 2.27905,1.40447 2.27904,0 2.27905,0 2.27902,0 2.27906,0 2.27903,0 2.27906,-1.92654 2.27903,-3.76741 2.27906,-2.34521 2.27902,-0.33696 2.27905,1.75568 2.27904,3.40969 2.27905,3.21075 2.27904,0 2.27905,0 2.27902,0 2.27906,0 2.27903,0 2.27906,-0.0619 2.27903,-4.10737 2.27906,-3.06584 2.27902,-1.25826 2.27905,0.86334 2.27904,2.76912 2.27905,3.98412 2.27904,0.87676 2.27905,0 2.27902,0 2.27905,0 2.27904,0 2.27906,0 2.27903,-2.44082 2.27906,-3.63722 2.27902,-2.11858 2.27905,-0.0709 2.27904,1.99442 2.27905,3.56109 2.27904,2.71203 2.27905,0 2.27903,0 2.27905,0 2.27904,0 2.27905,0 2.27904,-0.59347 2.27905,-4.03125 2.27902,-2.8755 2.27905,-1.0022 2.27904,1.122 2.27905,2.96592 2.27904,4.06846 2.27905,0.34604 2.27903,0 2.27905,0 2.27904,0 2.27905,0 2.27904,0 2.27905,-2.94561 2.27902,-3.49274 2.27905,-1.88369 2.27904,0.19462 2.27905,2.22542 2.27904,3.6995 2.27905,2.2025 2.27903,0 2.27905,0 2.27904,0 2.27905,0 2.27904,0 2.27905,-1.12289 2.27904,-3.93911 2.27904,-2.67397 2.27903,-0.74179 2.27905,1.37633 2.27904,3.15019 2.27906,3.95124 2.27903,0 2.27904,0 2.27904,0 2.27905,0 2.27906,0 2.27903,0 2.27905,-3.43912 2.27902,-3.334 2.27906,-1.64193 2.27904,0.46023 2.27905,2.44731 2.27904,3.82319 2.27905,1.68432 2.27902,0 2.27905,0 2.27904,0 2.27905,0 2.27904,0 2.27906,-1.64841 2.27902,-3.83099 2.27905,-2.46244 2.27903,-0.47839 2.27906,1.62504 2.27904,3.32276 2.27905,3.47243 2.27902,0 2.27905,0 2.27904,0 2.27905,0 2.27904,0 2.27905,0 2.27903,-3.9188 2.27905,-3.16229 2.27904,-1.39365 2.27905,0.72364 2.27903,2.65968 2.27906,3.9322 2.27902,1.15922 2.27906,0 2.27903,0 2.27906,0 2.27903,0 2.27906,0 2.27902,-2.16703 2.27905,-3.70859 2.27904,-2.24054 2.27905,-0.21324 2.27904,1.8677 2.27905,3.4815 2.27903,2.9802 2.27905,0 2.27903,0 2.27906,0 2.27903,0 2.27906,0 2.27902,-0.30927 2.27905,-4.0741 2.27904,-2.97888 2.27905,-1.1393 2.27904,0.98403 2.27905,2.8621 2.27902,4.0252 2.27906,0.63022 2.27904,0 2.27905,0 2.27903,0 2.27906,0 2.27902,0 2.27905,-2.67701 2.27904,-3.57145 2.27905,-2.01087 2.27904,0.0528 2.27906,2.103 2.27903,3.62768 2.27904,2.47587 2.27903,0 2.27906,0 2.27904,0 2.27905,0 2.27904,0 2.27903,-0.84043 2.27904,-3.99017 2.27905,-2.78296 2.27904,-0.8815 2.27905,1.24095 2.27904,3.05286 2.27904,4.10305 2.27904,0.0982 2.27905,0 2.27903,0 2.27906,0 2.27904,0 2.27903,0 2.27906,-3.17701 2.27903,-3.42007 2.27906,-1.77254 2.27903,0.31879 2.27906,2.32963 2.27902,3.75919 2.27905,1.96201 2.27904,0 2.27905,0 2.27904,0 2.27905,0 2.27902,0 2.27906,-1.36814 2.27903,-3.89067 2.27906,-2.57706 2.27903,-0.6194 2.27906,1.49269 2.27902,3.23235 2.27905,3.73023 2.27904,0 2.27905,0 2.27904,0" />
          </g>
        </g>
      </g>
    </g>
  </g>
</svg>
